<svg width="132" height="64" viewBox="0 0 132 64" fill="none" xmlns="http://www.w3.org/2000/svg">
<rect x="33" y="16" width="99" height="48" rx="24" fill="#DAE8F8"/>
<rect width="97" height="48" rx="24" fill="#3066BE"/>
<path d="M36 15.248V17.96H29.016V22.256H34.368V24.92H29.016V32H25.656V15.248H36ZM48.6546 28.808H41.9826L40.8786 32H37.3506L43.3746 15.224H47.2866L53.3106 32H49.7586L48.6546 28.808ZM47.7426 26.12L45.3186 19.112L42.8946 26.12H47.7426ZM68.0423 34.952L65.4983 31.904C64.7943 32.08 64.0743 32.168 63.3383 32.168C61.7703 32.168 60.3303 31.8 59.0183 31.064C57.7063 30.328 56.6663 29.312 55.8983 28.016C55.1303 26.704 54.7463 25.224 54.7463 23.576C54.7463 21.944 55.1303 20.48 55.8983 19.184C56.6663 17.872 57.7063 16.848 59.0183 16.112C60.3303 15.376 61.7703 15.008 63.3383 15.008C64.9223 15.008 66.3623 15.376 67.6583 16.112C68.9703 16.848 70.0023 17.872 70.7543 19.184C71.5223 20.48 71.9063 21.944 71.9063 23.576C71.9063 25.064 71.5863 26.424 70.9463 27.656C70.3223 28.872 69.4663 29.864 68.3783 30.632L72.2183 34.952H68.0423ZM58.2023 23.576C58.2023 24.696 58.4183 25.68 58.8503 26.528C59.2823 27.376 59.8823 28.032 60.6503 28.496C61.4343 28.944 62.3303 29.168 63.3383 29.168C64.3463 29.168 65.2343 28.944 66.0023 28.496C66.7703 28.032 67.3703 27.376 67.8023 26.528C68.2343 25.68 68.4503 24.696 68.4503 23.576C68.4503 22.456 68.2343 21.48 67.8023 20.648C67.3703 19.8 66.7703 19.152 66.0023 18.704C65.2343 18.256 64.3463 18.032 63.3383 18.032C62.3303 18.032 61.4343 18.256 60.6503 18.704C59.8823 19.152 59.2823 19.8 58.8503 20.648C58.4183 21.48 58.2023 22.456 58.2023 23.576Z" fill="white"/>
</svg>
