<svg width="199" height="64" viewBox="0 0 199 64" fill="none" xmlns="http://www.w3.org/2000/svg">
<g clip-path="url(#clip0_6_327)">
<path d="M12.0402 35.2025C15.3402 44.8358 20.7485 50.5497 23.0402 52.2025C29.6402 56.1691 39.9985 53.8552 44.3527 52.2025C45.0402 52.6747 46.6902 54.3275 47.7902 57.1609C48.8902 59.9942 50.0819 60.7025 50.5402 60.7025C52.3735 59.9942 56.7277 57.5858 59.4777 53.6192C62.2277 49.6525 61.0819 46.2997 60.1652 45.1192L46.4152 44.4109L39.5402 39.4525C46.4152 33.0775 46.4152 30.9525 47.7902 25.2858C48.8902 20.7525 54.2069 12.5358 56.7277 8.99417C35.8277 6.72751 26.936 20.7997 25.1027 28.1191C19.6027 24.5775 11.3527 24.5775 8.60272 25.2858C5.85272 25.9941 -1.02228 33.7858 3.79022 33.0775C7.64022 32.5108 12.0402 33.7858 12.0402 35.2025Z" fill="#3066BE"/>
<path d="M24.1249 25.0417L19.9999 23.625C23.2999 11.725 29.854 5.91667 33.0624 4.5L33.7499 12.2917C28.9374 15.125 25.4999 20.7917 24.1249 25.0417Z" fill="#3066BE"/>
</g>
<path d="M74.9366 17.144H91.3846V13.016H74.9366V17.144ZM88.4726 4.6V27H93.0486V4.6H88.4726ZM73.4326 4.6V27H78.0086V4.6H73.4326ZM105.294 21.912H117.134L116.59 18.296H105.838L105.294 21.912ZM111.15 11.864L114.51 19.64L114.446 20.792L117.326 27H122.51L111.15 3.288L99.7901 27H104.942L107.886 20.6L107.79 19.576L111.15 11.864ZM135.033 19.192L128.953 4.6H123.673L135.033 28.312L146.393 4.6H141.081L135.033 19.192ZM156.087 27H167.383V23.128H156.087V27ZM156.087 8.472H167.383V4.6H156.087V8.472ZM156.087 17.016H166.743V13.208H156.087V17.016ZM153.143 4.6V27H157.559V4.6H153.143ZM192.149 4.6V18.488L176.213 3.48V27H180.629V13.112L196.565 28.12V4.6H192.149Z" fill="#3066BE"/>
<path d="M94.8595 43.8C95.7262 43.8 96.4995 43.98 97.1795 44.34C97.8729 44.7 98.4129 45.2333 98.7995 45.94C99.1995 46.6467 99.3995 47.5 99.3995 48.5V55H97.1395V48.84C97.1395 47.8533 96.8929 47.1 96.3995 46.58C95.9062 46.0467 95.2329 45.78 94.3795 45.78C93.5262 45.78 92.8462 46.0467 92.3395 46.58C91.8462 47.1 91.5995 47.8533 91.5995 48.84V55H89.3395V48.84C89.3395 47.8533 89.0929 47.1 88.5995 46.58C88.1062 46.0467 87.4329 45.78 86.5795 45.78C85.7262 45.78 85.0462 46.0467 84.5395 46.58C84.0462 47.1 83.7995 47.8533 83.7995 48.84V55H81.5195V43.98H83.7995V45.24C84.1729 44.7867 84.6462 44.4333 85.2195 44.18C85.7929 43.9267 86.4062 43.8 87.0595 43.8C87.9395 43.8 88.7262 43.9867 89.4195 44.36C90.1129 44.7333 90.6462 45.2733 91.0195 45.98C91.3529 45.3133 91.8729 44.7867 92.5795 44.4C93.2862 44 94.0462 43.8 94.8595 43.8ZM112.401 49.22C112.401 49.6333 112.374 50.0067 112.321 50.34H103.901C103.967 51.22 104.294 51.9267 104.881 52.46C105.467 52.9933 106.187 53.26 107.041 53.26C108.267 53.26 109.134 52.7467 109.641 51.72H112.101C111.767 52.7333 111.161 53.5667 110.281 54.22C109.414 54.86 108.334 55.18 107.041 55.18C105.987 55.18 105.041 54.9467 104.201 54.48C103.374 54 102.721 53.3333 102.241 52.48C101.774 51.6133 101.541 50.6133 101.541 49.48C101.541 48.3467 101.767 47.3533 102.221 46.5C102.687 45.6333 103.334 44.9667 104.161 44.5C105.001 44.0333 105.961 43.8 107.041 43.8C108.081 43.8 109.007 44.0267 109.821 44.48C110.634 44.9333 111.267 45.5733 111.721 46.4C112.174 47.2133 112.401 48.1533 112.401 49.22ZM110.021 48.5C110.007 47.66 109.707 46.9867 109.121 46.48C108.534 45.9733 107.807 45.72 106.941 45.72C106.154 45.72 105.481 45.9733 104.921 46.48C104.361 46.9733 104.027 47.6467 103.921 48.5H110.021ZM120.205 43.8C121.071 43.8 121.845 43.98 122.525 44.34C123.218 44.7 123.758 45.2333 124.145 45.94C124.531 46.6467 124.725 47.5 124.725 48.5V55H122.465V48.84C122.465 47.8533 122.218 47.1 121.725 46.58C121.231 46.0467 120.558 45.78 119.705 45.78C118.851 45.78 118.171 46.0467 117.665 46.58C117.171 47.1 116.925 47.8533 116.925 48.84V55H114.645V43.98H116.925V45.24C117.298 44.7867 117.771 44.4333 118.345 44.18C118.931 43.9267 119.551 43.8 120.205 43.8ZM130.293 45.84V51.94C130.293 52.3533 130.386 52.6533 130.573 52.84C130.773 53.0133 131.106 53.1 131.573 53.1H132.973V55H131.173C130.146 55 129.359 54.76 128.813 54.28C128.266 53.8 127.993 53.02 127.993 51.94V45.84H126.693V43.98H127.993V41.24H130.293V43.98H132.973V45.84H130.293ZM134.314 49.44C134.314 48.3333 134.541 47.3533 134.994 46.5C135.461 45.6467 136.088 44.9867 136.874 44.52C137.674 44.04 138.554 43.8 139.514 43.8C140.381 43.8 141.134 43.9733 141.774 44.32C142.428 44.6533 142.948 45.0733 143.334 45.58V43.98H145.634V55H143.334V53.36C142.948 53.88 142.421 54.3133 141.754 54.66C141.088 55.0067 140.328 55.18 139.474 55.18C138.528 55.18 137.661 54.94 136.874 54.46C136.088 53.9667 135.461 53.2867 134.994 52.42C134.541 51.54 134.314 50.5467 134.314 49.44ZM143.334 49.48C143.334 48.72 143.174 48.06 142.854 47.5C142.548 46.94 142.141 46.5133 141.634 46.22C141.128 45.9267 140.581 45.78 139.994 45.78C139.408 45.78 138.861 45.9267 138.354 46.22C137.848 46.5 137.434 46.92 137.114 47.48C136.808 48.0267 136.654 48.68 136.654 49.44C136.654 50.2 136.808 50.8667 137.114 51.44C137.434 52.0133 137.848 52.4533 138.354 52.76C138.874 53.0533 139.421 53.2 139.994 53.2C140.581 53.2 141.128 53.0533 141.634 52.76C142.141 52.4667 142.548 52.04 142.854 51.48C143.174 50.9067 143.334 50.24 143.334 49.48ZM150.909 40.2V55H148.629V40.2H150.909ZM158.338 49.44C158.338 48.3333 158.564 47.3533 159.018 46.5C159.484 45.6467 160.111 44.9867 160.898 44.52C161.698 44.04 162.578 43.8 163.538 43.8C164.404 43.8 165.158 43.9733 165.798 44.32C166.451 44.6533 166.971 45.0733 167.358 45.58V43.98H169.658V55H167.358V53.36C166.971 53.88 166.444 54.3133 165.778 54.66C165.111 55.0067 164.351 55.18 163.498 55.18C162.551 55.18 161.684 54.94 160.898 54.46C160.111 53.9667 159.484 53.2867 159.018 52.42C158.564 51.54 158.338 50.5467 158.338 49.44ZM167.358 49.48C167.358 48.72 167.198 48.06 166.878 47.5C166.571 46.94 166.164 46.5133 165.658 46.22C165.151 45.9267 164.604 45.78 164.018 45.78C163.431 45.78 162.884 45.9267 162.378 46.22C161.871 46.5 161.458 46.92 161.138 47.48C160.831 48.0267 160.678 48.68 160.678 49.44C160.678 50.2 160.831 50.8667 161.138 51.44C161.458 52.0133 161.871 52.4533 162.378 52.76C162.898 53.0533 163.444 53.2 164.018 53.2C164.604 53.2 165.151 53.0533 165.658 52.76C166.164 52.4667 166.571 52.04 166.878 51.48C167.198 50.9067 167.358 50.24 167.358 49.48ZM173.812 42.52C173.399 42.52 173.052 42.38 172.772 42.1C172.492 41.82 172.352 41.4733 172.352 41.06C172.352 40.6467 172.492 40.3 172.772 40.02C173.052 39.74 173.399 39.6 173.812 39.6C174.212 39.6 174.552 39.74 174.832 40.02C175.112 40.3 175.252 40.6467 175.252 41.06C175.252 41.4733 175.112 41.82 174.832 42.1C174.552 42.38 174.212 42.52 173.812 42.52ZM174.932 43.98V55H172.652V43.98H174.932ZM177.166 49.44C177.166 48.3333 177.392 47.3533 177.846 46.5C178.312 45.6467 178.939 44.9867 179.726 44.52C180.526 44.04 181.412 43.8 182.386 43.8C183.106 43.8 183.812 43.96 184.506 44.28C185.212 44.5867 185.772 45 186.186 45.52V40.2H188.486V55H186.186V53.34C185.812 53.8733 185.292 54.3133 184.626 54.66C183.972 55.0067 183.219 55.18 182.366 55.18C181.406 55.18 180.526 54.94 179.726 54.46C178.939 53.9667 178.312 53.2867 177.846 52.42C177.392 51.54 177.166 50.5467 177.166 49.44ZM186.186 49.48C186.186 48.72 186.026 48.06 185.706 47.5C185.399 46.94 184.992 46.5133 184.486 46.22C183.979 45.9267 183.432 45.78 182.846 45.78C182.259 45.78 181.712 45.9267 181.206 46.22C180.699 46.5 180.286 46.92 179.966 47.48C179.659 48.0267 179.506 48.68 179.506 49.44C179.506 50.2 179.659 50.8667 179.966 51.44C180.286 52.0133 180.699 52.4533 181.206 52.76C181.726 53.0533 182.272 53.2 182.846 53.2C183.432 53.2 183.979 53.0533 184.486 52.76C184.992 52.4667 185.399 52.04 185.706 51.48C186.026 50.9067 186.186 50.24 186.186 49.48Z" fill="#3066BE"/>
<defs>
<clipPath id="clip0_6_327">
<rect width="64" height="64" fill="white"/>
</clipPath>
</defs>
</svg>
