<svg width="184" height="62" viewBox="0 0 184 62" fill="none" xmlns="http://www.w3.org/2000/svg">
<g clip-path="url(#clip0_62_502)">
<path d="M11.0996 33.952C14.1418 42.8327 19.1276 48.1002 21.2402 49.6239C27.3246 53.2806 36.8737 51.1475 40.8877 49.6239C41.5215 50.0592 43.0426 51.5829 44.0567 54.1949C45.0707 56.8069 46.1693 57.4599 46.5918 57.4599C48.2819 56.8069 52.2959 54.5867 54.8311 50.9299C57.3662 47.2732 56.3099 44.1823 55.4649 43.094L42.7891 42.441L36.4512 37.87C42.7891 31.9931 42.7891 30.0341 44.0567 24.8101C45.0707 20.6309 49.972 13.0562 52.2959 9.7912C33.0287 7.70161 24.8317 20.6744 23.1416 27.4221C18.0713 24.1571 10.4658 24.1571 7.93064 24.8101C5.39548 25.4631 -0.942421 32.646 3.49411 31.993C7.04333 31.4706 11.0996 32.6461 11.0996 33.952Z" fill="#FEFFFC"/>
<path d="M22.2402 24.585L18.4375 23.279C21.4797 12.3087 27.5218 6.95412 30.4795 5.64813L31.1133 12.8311C26.6768 15.4431 23.5078 20.667 22.2402 24.585Z" fill="#FEFFFC"/>
</g>
<path d="M69.082 15.9141H84.245V12.1086H69.082V15.9141ZM81.5605 4.35009V25.0001H85.779V4.35009H81.5605ZM67.6955 4.35009V25.0001H71.914V4.35009H67.6955ZM97.0679 20.3096H107.983L107.481 16.9761H97.5694L97.0679 20.3096ZM102.466 11.0466L105.564 18.2151L105.505 19.2771L108.16 25.0001H112.939L102.466 3.14058L91.9938 25.0001H96.7434L99.4574 19.1001L99.3689 18.1561L102.466 11.0466ZM124.483 17.8021L118.878 4.35009H114.011L124.483 26.2096L134.956 4.35009H130.059L124.483 17.8021ZM143.892 25.0001H154.306V21.4306H143.892V25.0001ZM143.892 7.91959H154.306V4.35009H143.892V7.91959ZM143.892 15.7961H153.716V12.2856H143.892V15.7961ZM141.178 4.35009V25.0001H145.249V4.35009H141.178ZM177.137 4.35009V17.1531L162.446 3.31759V25.0001H166.517V12.1971L181.208 26.0326V4.35009H177.137Z" fill="#FEFFFC"/>
<path d="M84.3128 41.8C85.1794 41.8 85.9528 41.98 86.6328 42.34C87.3261 42.7 87.8661 43.2333 88.2528 43.94C88.6528 44.6467 88.8528 45.5 88.8528 46.5V53H86.5928V46.84C86.5928 45.8533 86.3461 45.1 85.8528 44.58C85.3594 44.0467 84.6861 43.78 83.8328 43.78C82.9794 43.78 82.2994 44.0467 81.7928 44.58C81.2994 45.1 81.0528 45.8533 81.0528 46.84V53H78.7928V46.84C78.7928 45.8533 78.5461 45.1 78.0528 44.58C77.5594 44.0467 76.8861 43.78 76.0328 43.78C75.1794 43.78 74.4994 44.0467 73.9928 44.58C73.4994 45.1 73.2528 45.8533 73.2528 46.84V53H70.9728V41.98H73.2528V43.24C73.6261 42.7867 74.0994 42.4333 74.6728 42.18C75.2461 41.9267 75.8594 41.8 76.5128 41.8C77.3928 41.8 78.1794 41.9867 78.8728 42.36C79.5661 42.7333 80.0994 43.2733 80.4728 43.98C80.8061 43.3133 81.3261 42.7867 82.0328 42.4C82.7394 42 83.4994 41.8 84.3128 41.8ZM101.854 47.22C101.854 47.6333 101.827 48.0067 101.774 48.34H93.354C93.4207 49.22 93.7474 49.9267 94.334 50.46C94.9207 50.9933 95.6407 51.26 96.494 51.26C97.7207 51.26 98.5874 50.7467 99.094 49.72H101.554C101.221 50.7333 100.614 51.5667 99.734 52.22C98.8674 52.86 97.7874 53.18 96.494 53.18C95.4407 53.18 94.494 52.9467 93.654 52.48C92.8274 52 92.174 51.3333 91.694 50.48C91.2274 49.6133 90.994 48.6133 90.994 47.48C90.994 46.3467 91.2207 45.3533 91.674 44.5C92.1407 43.6333 92.7874 42.9667 93.614 42.5C94.454 42.0333 95.414 41.8 96.494 41.8C97.534 41.8 98.4607 42.0267 99.274 42.48C100.087 42.9333 100.721 43.5733 101.174 44.4C101.627 45.2133 101.854 46.1533 101.854 47.22ZM99.474 46.5C99.4607 45.66 99.1607 44.9867 98.574 44.48C97.9874 43.9733 97.2607 43.72 96.394 43.72C95.6074 43.72 94.934 43.9733 94.374 44.48C93.814 44.9733 93.4807 45.6467 93.374 46.5H99.474ZM109.658 41.8C110.524 41.8 111.298 41.98 111.978 42.34C112.671 42.7 113.211 43.2333 113.598 43.94C113.984 44.6467 114.178 45.5 114.178 46.5V53H111.918V46.84C111.918 45.8533 111.671 45.1 111.178 44.58C110.684 44.0467 110.011 43.78 109.158 43.78C108.304 43.78 107.624 44.0467 107.118 44.58C106.624 45.1 106.378 45.8533 106.378 46.84V53H104.098V41.98H106.378V43.24C106.751 42.7867 107.224 42.4333 107.798 42.18C108.384 41.9267 109.004 41.8 109.658 41.8ZM119.746 43.84V49.94C119.746 50.3533 119.839 50.6533 120.026 50.84C120.226 51.0133 120.559 51.1 121.026 51.1H122.426V53H120.626C119.599 53 118.813 52.76 118.266 52.28C117.719 51.8 117.446 51.02 117.446 49.94V43.84H116.146V41.98H117.446V39.24H119.746V41.98H122.426V43.84H119.746ZM123.767 47.44C123.767 46.3333 123.994 45.3533 124.447 44.5C124.914 43.6467 125.541 42.9867 126.327 42.52C127.127 42.04 128.007 41.8 128.967 41.8C129.834 41.8 130.587 41.9733 131.227 42.32C131.881 42.6533 132.401 43.0733 132.787 43.58V41.98H135.087V53H132.787V51.36C132.401 51.88 131.874 52.3133 131.207 52.66C130.541 53.0067 129.781 53.18 128.927 53.18C127.981 53.18 127.114 52.94 126.327 52.46C125.541 51.9667 124.914 51.2867 124.447 50.42C123.994 49.54 123.767 48.5467 123.767 47.44ZM132.787 47.48C132.787 46.72 132.627 46.06 132.307 45.5C132.001 44.94 131.594 44.5133 131.087 44.22C130.581 43.9267 130.034 43.78 129.447 43.78C128.861 43.78 128.314 43.9267 127.807 44.22C127.301 44.5 126.887 44.92 126.567 45.48C126.261 46.0267 126.107 46.68 126.107 47.44C126.107 48.2 126.261 48.8667 126.567 49.44C126.887 50.0133 127.301 50.4533 127.807 50.76C128.327 51.0533 128.874 51.2 129.447 51.2C130.034 51.2 130.581 51.0533 131.087 50.76C131.594 50.4667 132.001 50.04 132.307 49.48C132.627 48.9067 132.787 48.24 132.787 47.48ZM140.362 38.2V53H138.082V38.2H140.362ZM147.791 47.44C147.791 46.3333 148.018 45.3533 148.471 44.5C148.938 43.6467 149.564 42.9867 150.351 42.52C151.151 42.04 152.031 41.8 152.991 41.8C153.858 41.8 154.611 41.9733 155.251 42.32C155.904 42.6533 156.424 43.0733 156.811 43.58V41.98H159.111V53H156.811V51.36C156.424 51.88 155.898 52.3133 155.231 52.66C154.564 53.0067 153.804 53.18 152.951 53.18C152.004 53.18 151.138 52.94 150.351 52.46C149.564 51.9667 148.938 51.2867 148.471 50.42C148.018 49.54 147.791 48.5467 147.791 47.44ZM156.811 47.48C156.811 46.72 156.651 46.06 156.331 45.5C156.024 44.94 155.618 44.5133 155.111 44.22C154.604 43.9267 154.058 43.78 153.471 43.78C152.884 43.78 152.338 43.9267 151.831 44.22C151.324 44.5 150.911 44.92 150.591 45.48C150.284 46.0267 150.131 46.68 150.131 47.44C150.131 48.2 150.284 48.8667 150.591 49.44C150.911 50.0133 151.324 50.4533 151.831 50.76C152.351 51.0533 152.898 51.2 153.471 51.2C154.058 51.2 154.604 51.0533 155.111 50.76C155.618 50.4667 156.024 50.04 156.331 49.48C156.651 48.9067 156.811 48.24 156.811 47.48ZM163.266 40.52C162.852 40.52 162.506 40.38 162.226 40.1C161.946 39.82 161.806 39.4733 161.806 39.06C161.806 38.6467 161.946 38.3 162.226 38.02C162.506 37.74 162.852 37.6 163.266 37.6C163.666 37.6 164.006 37.74 164.286 38.02C164.566 38.3 164.706 38.6467 164.706 39.06C164.706 39.4733 164.566 39.82 164.286 40.1C164.006 40.38 163.666 40.52 163.266 40.52ZM164.386 41.98V53H162.106V41.98H164.386ZM166.619 47.44C166.619 46.3333 166.846 45.3533 167.299 44.5C167.766 43.6467 168.392 42.9867 169.179 42.52C169.979 42.04 170.866 41.8 171.839 41.8C172.559 41.8 173.266 41.96 173.959 42.28C174.666 42.5867 175.226 43 175.639 43.52V38.2H177.939V53H175.639V51.34C175.266 51.8733 174.746 52.3133 174.079 52.66C173.426 53.0067 172.672 53.18 171.819 53.18C170.859 53.18 169.979 52.94 169.179 52.46C168.392 51.9667 167.766 51.2867 167.299 50.42C166.846 49.54 166.619 48.5467 166.619 47.44ZM175.639 47.48C175.639 46.72 175.479 46.06 175.159 45.5C174.852 44.94 174.446 44.5133 173.939 44.22C173.432 43.9267 172.886 43.78 172.299 43.78C171.712 43.78 171.166 43.9267 170.659 44.22C170.152 44.5 169.739 44.92 169.419 45.48C169.112 46.0267 168.959 46.68 168.959 47.44C168.959 48.2 169.112 48.8667 169.419 49.44C169.739 50.0133 170.152 50.4533 170.659 50.76C171.179 51.0533 171.726 51.2 172.299 51.2C172.886 51.2 173.432 51.0533 173.939 50.76C174.446 50.4667 174.852 50.04 175.159 49.48C175.479 48.9067 175.639 48.24 175.639 47.48Z" fill="#FEFFFC"/>
<defs>
<clipPath id="clip0_62_502">
<rect width="59.0001" height="59.0001" fill="white" transform="translate(0 1.49994)"/>
</clipPath>
</defs>
</svg>
