<svg width="199" height="64" viewBox="0 0 199 64" fill="none" xmlns="http://www.w3.org/2000/svg">
<g clip-path="url(#clip0_69_181)">
<path d="M12.0402 35.2023C15.3402 44.8357 20.7485 50.5496 23.0402 52.2023C29.6402 56.169 39.9985 53.8551 44.3527 52.2023C45.0402 52.6746 46.6902 54.3274 47.7902 57.1607C48.8902 59.9941 50.0819 60.7024 50.5402 60.7024C52.3735 59.9941 56.7277 57.5857 59.4777 53.6191C62.2277 49.6524 61.0819 46.2996 60.1652 45.1191L46.4152 44.4107L39.5402 39.4524C46.4152 33.0774 46.4152 30.9524 47.7902 25.2857C48.8902 20.7523 54.2069 12.5357 56.7277 8.99405C35.8277 6.72739 26.936 20.7996 25.1027 28.119C19.6027 24.5774 11.3527 24.5774 8.60272 25.2857C5.85272 25.994 -1.02228 33.7857 3.79022 33.0773C7.64022 32.5107 12.0402 33.7857 12.0402 35.2023Z" fill="#FEFFFC"/>
<path d="M24.125 25.0415L20 23.6249C23.3 11.7249 29.8542 5.91654 33.0625 4.49988L33.75 12.2915C28.9375 15.1249 25.5 20.7915 24.125 25.0415Z" fill="#FEFFFC"/>
</g>
<path d="M74.9366 21.144H91.3846V17.016H74.9366V21.144ZM88.4726 8.6V31H93.0486V8.6H88.4726ZM73.4326 8.6V31H78.0086V8.6H73.4326ZM105.294 25.912H117.134L116.59 22.296H105.838L105.294 25.912ZM111.15 15.864L114.51 23.64L114.446 24.792L117.326 31H122.51L111.15 7.288L99.7901 31H104.942L107.886 24.6L107.79 23.576L111.15 15.864ZM135.033 23.192L128.953 8.6H123.673L135.033 32.312L146.393 8.6H141.081L135.033 23.192ZM156.087 31H167.383V27.128H156.087V31ZM156.087 12.472H167.383V8.6H156.087V12.472ZM156.087 21.016H166.743V17.208H156.087V21.016ZM153.143 8.6V31H157.559V8.6H153.143ZM192.149 8.6V22.488L176.213 7.48V31H180.629V17.112L196.565 32.12V8.6H192.149Z" fill="#FEFFFC"/>
<path d="M99.0061 47.92C99.0061 44.968 97.5181 44.008 95.5261 44.008C93.8941 44.008 92.5021 44.776 91.7341 45.88C91.3261 44.752 90.1501 44.008 88.4701 44.008C87.0781 44.008 85.6861 44.632 84.8941 45.568V44.2H82.9741V55H84.8941V47.272C85.4461 46.48 86.4781 45.808 87.7261 45.808C89.2381 45.808 90.0301 46.72 90.0301 48.04V55H91.9501V48.136C91.9501 47.896 91.9501 47.56 91.9261 47.368C92.4301 46.48 93.4621 45.808 94.7581 45.808C96.3181 45.808 97.0861 46.672 97.0861 48.448V55H99.0061V47.92ZM110.76 52.312C110.064 52.96 108.84 53.44 107.448 53.44C105.336 53.44 103.848 52.24 103.68 50.2H111.984C112.056 49.864 112.104 49.432 112.104 48.904C112.104 45.928 109.872 43.96 107.088 43.96C103.536 43.96 101.52 46.456 101.52 49.6C101.52 53.008 103.8 55.24 107.304 55.24C108.744 55.24 110.304 54.784 111.36 53.824L110.76 52.312ZM106.992 45.76C108.864 45.76 110.016 46.864 110.112 48.64H103.56C103.776 46.984 105.024 45.76 106.992 45.76ZM114.708 55H116.628V47.2C117.324 46.408 118.452 45.808 119.676 45.808C121.692 45.808 122.724 46.864 122.724 49.12V55H124.644V48.76C124.644 45.376 122.964 44.008 120.156 44.008C118.74 44.008 117.372 44.704 116.628 45.52V44.2H114.708V55ZM127.64 50.896C127.64 53.656 128.6 55.192 131.024 55.192C132.224 55.192 133.208 54.76 133.784 54.28L133.184 52.792C132.8 53.08 132.224 53.392 131.48 53.392C130.112 53.392 129.56 52.408 129.56 50.704V46H133.52V44.2H129.56V41.2H127.64V50.896ZM136.917 46.48C137.781 46.024 138.573 45.688 139.893 45.688C142.029 45.688 142.341 47.08 142.341 49.096C141.621 48.568 140.493 48.4 139.653 48.4C137.325 48.4 135.573 49.624 135.573 51.832C135.573 53.92 136.917 55.168 138.885 55.168C140.661 55.168 141.693 54.424 142.341 53.608V55H144.165V48.376C144.165 45.568 143.085 43.96 140.013 43.96C138.669 43.96 137.373 44.344 136.413 44.944L136.917 46.48ZM139.557 53.44C138.309 53.44 137.613 52.768 137.613 51.736C137.613 50.488 138.765 49.96 139.917 49.96C140.853 49.96 141.669 50.2 142.341 50.68V52.048C141.789 52.696 140.973 53.44 139.557 53.44ZM147.38 52.12C147.38 54.208 148.196 55.192 149.828 55.192C150.956 55.192 151.796 54.832 152.372 54.376L151.94 52.912C151.58 53.152 151.1 53.392 150.572 53.392C149.66 53.392 149.3 52.72 149.3 51.256V38.2H147.38V52.12ZM160.308 46.48C161.172 46.024 161.964 45.688 163.284 45.688C165.42 45.688 165.732 47.08 165.732 49.096C165.012 48.568 163.884 48.4 163.044 48.4C160.716 48.4 158.964 49.624 158.964 51.832C158.964 53.92 160.308 55.168 162.276 55.168C164.052 55.168 165.084 54.424 165.732 53.608V55H167.556V48.376C167.556 45.568 166.476 43.96 163.404 43.96C162.06 43.96 160.764 44.344 159.804 44.944L160.308 46.48ZM162.948 53.44C161.7 53.44 161.004 52.768 161.004 51.736C161.004 50.488 162.156 49.96 163.308 49.96C164.244 49.96 165.06 50.2 165.732 50.68V52.048C165.18 52.696 164.364 53.44 162.948 53.44ZM171.299 55H173.219V44.2H171.299V55ZM171.059 40.144C171.059 40.936 171.635 41.392 172.307 41.392C172.907 41.392 173.483 40.936 173.483 40.144C173.483 39.448 172.907 38.992 172.307 38.992C171.635 38.992 171.059 39.448 171.059 40.144ZM185.113 55H187.033V38.2H185.113V44.728C184.369 44.2 183.529 43.96 182.377 43.96C178.969 43.96 176.473 46.312 176.473 49.672C176.473 53.008 178.513 55.192 181.681 55.192C183.145 55.192 184.321 54.496 185.113 53.632V55ZM182.041 53.392C180.025 53.392 178.513 52 178.513 49.624C178.513 47.248 180.313 45.76 182.449 45.76C183.337 45.76 184.201 46.024 185.113 46.6V51.952C184.441 52.696 183.289 53.392 182.041 53.392Z" fill="#FEFFFC"/>
<defs>
<clipPath id="clip0_69_181">
<rect width="64" height="64" fill="white"/>
</clipPath>
</defs>
</svg>
